<svg width="43" height="39" viewBox="0 0 43 39" fill="none" xmlns="http://www.w3.org/2000/svg">
<path fill-rule="evenodd" clip-rule="evenodd" d="M42.0855 12.1618H33.173C29.0255 12.1691 25.6655 15.4375 25.658 19.472C25.6524 23.5156 29.0161 26.7985 33.173 26.804H42.093V27.4464C42.093 34.5 37.807 38.6709 30.5539 38.6709H11.541C4.28601 38.6709 0 34.5 0 27.4464V12.0836C0 5.02999 4.28601 0.875366 11.541 0.875366H30.5464C37.7995 0.875366 42.0855 5.02999 42.0855 12.0836V12.1618ZM9.97512 12.1454H21.8454H21.8528H21.8678C22.7565 12.1418 23.4748 11.4374 23.4711 10.5712C23.4673 9.70681 22.7414 9.00801 21.8528 9.01165H9.97512C9.09212 9.01528 8.3756 9.71227 8.37186 10.5731C8.36811 11.4374 9.0865 12.1418 9.97512 12.1454Z" fill="white"/>
</svg>
